<?xml version="1.0" encoding="UTF-8"?>
<svg version="1.1" xmlns="http://www.w3.org/2000/svg" width="1280" height="720">
<path d="M0 0 C422.4 0 844.8 0 1280 0 C1280 237.6 1280 475.2 1280 720 C857.6 720 435.2 720 0 720 C0 482.4 0 244.8 0 0 Z " fill="#FEFEFE" transform="translate(0,0)"/>
<path d="M0 0 C3 -0.3125 3 -0.3125 6 0 C6.99 0.99 6.99 0.99 8 2 C7.70462173 3.67381019 7.36106097 5.33911955 7 7 C6.76877689 11.15375808 6.96008671 14.97033599 8 19 C8.03888349 21.33300933 8.0448635 23.66709801 8 26 C9.299375 25.979375 10.59875 25.95875 11.9375 25.9375 C13.29165633 25.91600546 14.64756083 25.92851801 16 26 C17 27 17 27 17.0625 30.0625 C17.041875 31.031875 17.02125 32.00125 17 33 C17.81855469 32.93941406 18.63710938 32.87882812 19.48046875 32.81640625 C23.85863549 33.04479009 27.2712958 34.33057895 31.3125 35.9375 C32.04017578 36.21529297 32.76785156 36.49308594 33.51757812 36.77929688 C38.83645992 38.83645992 38.83645992 38.83645992 40 40 C41.47105156 40.09813728 42.94680521 40.1266279 44.42112637 40.12749195 C45.381851 40.1304996 46.34257563 40.13350725 47.33241314 40.13660604 C48.40047178 40.13485567 49.46853042 40.13310529 50.56895447 40.13130188 C52.25636862 40.13447545 52.25636862 40.13447545 53.97787195 40.13771313 C57.77944698 40.14374511 61.58098911 40.1427107 65.38256836 40.1418457 C68.09552168 40.14430146 70.80847199 40.14832141 73.52142334 40.15237427 C79.38073151 40.1605004 85.2400353 40.16543576 91.09934807 40.16866493 C100.36455497 40.17415603 109.62972493 40.19104933 118.89491272 40.21000671 C122.06371587 40.21636419 125.23251912 40.22267257 128.40132236 40.22898388 C129.19336863 40.23056764 129.9854149 40.2321514 130.80146257 40.23378316 C139.82540272 40.25173368 148.8493455 40.26795167 157.87329102 40.28295898 C158.6985027 40.28433486 159.52371439 40.28571073 160.37393249 40.28712829 C173.73018841 40.30903214 187.08643486 40.31980746 200.44270556 40.32732973 C214.15439846 40.33540808 227.86601023 40.35872477 241.57765681 40.3952834 C250.03435977 40.41728605 258.49089582 40.42697989 266.94762594 40.42078307 C272.74965655 40.41760217 278.55154498 40.42898007 284.35353159 40.45167748 C287.6986689 40.46431414 291.04322553 40.4683642 294.38841438 40.45926094 C298.0219941 40.45037281 301.65468508 40.46606804 305.28819275 40.48774719 C306.86016596 40.47508339 306.86016596 40.47508339 308.46389621 40.46216375 C319.26050756 40.58097861 327.01462584 44.06869557 334.796875 51.49609375 C341.16812626 58.73717896 343.10719199 66.48409968 343.14717102 75.96917725 C343.15790398 77.72684418 343.15790398 77.72684418 343.16885376 79.52001953 C343.17154266 80.79184082 343.17423157 82.06366211 343.17700195 83.37402344 C343.18327408 84.7379778 343.18992154 86.10193049 343.19691467 87.46588135 C343.21786571 91.93036733 343.22830763 96.39485331 343.23828125 100.859375 C343.24233195 102.40136991 343.24644896 103.94336464 343.25063133 105.48535919 C343.26966215 112.73086712 343.28389842 119.97636499 343.2922433 127.22189307 C343.30201261 135.56448738 343.32833283 143.90681615 343.36874419 152.24931693 C343.39896947 158.71238794 343.41371817 165.17538307 343.41702431 171.63852334 C343.41936714 175.49202305 343.42822724 179.34523839 343.45348549 183.1986618 C343.47688466 186.82673938 343.48095252 190.4543477 343.47072411 194.08248138 C343.46999825 196.03431743 343.4890048 197.9861303 343.50878906 199.93786621 C343.44116127 211.45999371 340.27973997 220.76748288 332 229 C322.34368055 236.2500019 313.86635572 237.29702661 302.09725952 237.24723816 C300.14194146 237.25085978 300.14194146 237.25085978 298.14712203 237.25455457 C294.53949183 237.26095242 290.93197431 237.25491197 287.32435155 237.24679029 C283.42916211 237.24020043 279.533985 237.2451647 275.63879395 237.24867249 C268.01059755 237.25371084 260.38244456 237.24807668 252.75425355 237.23882218 C243.86364164 237.22842524 234.97303906 237.22850876 226.08242221 237.22899476 C210.21070072 237.22949533 194.33899938 237.22033713 178.46728516 237.20581055 C163.08316684 237.1917376 147.69906625 237.18463919 132.31494141 237.18530273 C131.36829213 237.18534269 130.42164285 237.18538265 129.44630723 237.18542381 C128.50126213 237.18546417 127.55621703 237.18550452 126.58253419 237.1855461 C109.0518621 237.18623727 91.52119752 237.18033644 73.99052786 237.17139288 C67.80142807 237.16838422 61.61232966 237.16731422 55.42322922 237.16686058 C47.87034425 237.16617603 40.31747194 237.16167823 32.76459233 237.15252777 C28.91492225 237.14793284 25.06526826 237.14485568 21.21559525 237.14612198 C17.03192654 237.14743132 12.84830502 237.14093212 8.66464233 237.13371277 C7.46218066 237.13526137 6.25971898 237.13680997 5.02081907 237.1384055 C-30.04791279 237.03888787 -30.04791279 237.03888787 -40 231 C-40.734375 228.8984375 -40.734375 228.8984375 -41 227 C-36.375 224 -36.375 224 -33 224 C-32.34 224.99 -31.68 225.98 -31 227 C-28.04279372 227.66680368 -28.04279372 227.66680368 -25 227 C-24.59910156 226.19175781 -24.19820313 225.38351562 -23.78515625 224.55078125 C-22 222 -22 222 -18.5234375 221.07421875 C-17.1431606 220.92052125 -15.75981561 220.79272818 -14.375 220.6875 C-13.66021484 220.61611816 -12.94542969 220.54473633 -12.20898438 220.47119141 C-7.12863353 219.99562819 -2.10151275 219.81780312 3 220 C2.01 216.535 2.01 216.535 1 213 C-0.3096875 213.04382813 -1.619375 213.08765625 -2.96875 213.1328125 C-17.91354758 213.26430789 -32.46263486 210.65402019 -45 202 C-49.04494947 198.01884417 -51.27371805 193.32181519 -53.23242188 188.05810547 C-53.98653426 186.03610565 -54.83770121 184.09125778 -55.734375 182.12890625 C-59.31710372 174.08649169 -61.85978088 165.74167992 -63 157 C-63.11287354 156.36908447 -63.22574707 155.73816895 -63.34204102 155.08813477 C-64.18183845 146.91454823 -59.23293339 140.38777609 -55.1875 133.6875 C-54.44032214 132.41442825 -53.69486412 131.14034546 -52.95117188 129.86523438 C-51.00567153 126.55214936 -49.04326082 123.25416374 -47 120 C-46.63132813 119.22019775 -46.26265625 118.44039551 -45.8828125 117.63696289 C-42.54778919 114.73741267 -38.32600212 115.51685034 -34.08203125 115.609375 C-33.10965012 115.61503479 -32.13726898 115.62069458 -31.13542175 115.62652588 C-28.027282 115.64893071 -24.92029176 115.69913519 -21.8125 115.75 C-19.70639685 115.77005967 -17.60027564 115.78831136 -15.49414062 115.8046875 C-10.32898364 115.84880907 -5.16468676 115.9178654 0 116 C0 115.01 0 114.02 0 113 C-0.56074722 113.0199855 -1.12149445 113.03997101 -1.69923401 113.06056213 C-7.55522838 113.26025008 -13.41025139 113.39563781 -19.26879883 113.49438477 C-21.45246683 113.53954401 -23.63586418 113.60088905 -25.81860352 113.67895508 C-28.96438332 113.78861657 -32.10655886 113.8392668 -35.25390625 113.87890625 C-36.2239711 113.92535782 -37.19403595 113.97180939 -38.1934967 114.01966858 C-42.50106631 114.02284993 -44.98192173 113.94519365 -48.22262573 110.93649292 C-49.978131 108.69242035 -51.54358887 106.44682388 -53 104 C-55.89436103 105.40405856 -58.24942663 106.87615849 -60.72265625 108.94140625 C-61.42036133 109.52051758 -62.11806641 110.09962891 -62.83691406 110.69628906 C-63.57135742 111.31213867 -64.30580078 111.92798828 -65.0625 112.5625 C-66.60020625 113.83990896 -68.13796662 115.11725277 -69.67578125 116.39453125 C-70.42037598 117.01537598 -71.1649707 117.6362207 -71.93212891 118.27587891 C-75.3751705 121.14657073 -78.82808436 124.00375426 -82.3125 126.82421875 C-83.75186891 127.98952178 -85.18886125 129.15797648 -86.609375 130.34619141 C-88.31032696 131.76771519 -90.0283963 133.16609906 -91.75 134.5625 C-92.26916992 135.0049707 -92.78833984 135.44744141 -93.32324219 135.90332031 C-96.23866422 138.22935633 -97.99010632 138.99900753 -101.73828125 139.375 C-105 139 -105 139 -107.4375 137.4375 C-109 135 -109 135 -109.875 131.8125 C-108.45506215 125.62562794 -103.82301796 122.83886159 -99 119 C-97.75476563 117.96939453 -97.75476563 117.96939453 -96.484375 116.91796875 C-94.23190109 115.05587759 -91.96484081 113.21319657 -89.69287109 111.375 C-86.19871754 108.53694508 -82.72565678 105.67314913 -79.25 102.8125 C-78.54093506 102.23024658 -77.83187012 101.64799316 -77.10131836 101.0480957 C-76.41303955 100.48179443 -75.72476074 99.91549316 -75.015625 99.33203125 C-74.34595703 98.78111816 -73.67628906 98.23020508 -72.98632812 97.66259766 C-70.4237583 95.5176738 -67.92357409 93.30488282 -65.43652344 91.07299805 C-64 90 -64 90 -62 90 C-62.495 88.88625 -62.99 87.7725 -63.5 86.625 C-66.609935 77.23567472 -66.85071135 64.2153612 -62.453125 55.234375 C-56.34186605 45.83749296 -48.00897989 37.92792018 -37 35 C-33.94110493 34.66353212 -30.88714749 34.53973889 -27.8125 34.4375 C-26.21469755 34.37747065 -24.61702605 34.31381797 -23.01953125 34.24609375 C-22.31932861 34.22216553 -21.61912598 34.1982373 -20.89770508 34.17358398 C-18.776451 34.05242663 -18.776451 34.05242663 -16 33 C-13.66700175 32.96045766 -11.33291811 32.95598268 -9 33 C-9.020625 32.030625 -9.04125 31.06125 -9.0625 30.0625 C-9 27 -9 27 -8 26 C-5.66702567 25.95907063 -3.33294775 25.95758277 -1 26 C-0.97293555 23.10410348 -0.95312971 20.20846205 -0.9375 17.3125 C-0.92493164 16.08756836 -0.92493164 16.08756836 -0.91210938 14.83789062 C-0.8984247 11.45777492 -0.90873533 8.42004421 -1.62890625 5.10546875 C-2 3 -2 3 0 0 Z " fill="#D5E3FC" transform="translate(260,228)"/>
<path d="M0 0 C3 -0.3125 3 -0.3125 6 0 C6.99 0.99 6.99 0.99 8 2 C7.70462173 3.67381019 7.36106097 5.33911955 7 7 C6.76877689 11.15375808 6.96008671 14.97033599 8 19 C8.03888349 21.33300933 8.0448635 23.66709801 8 26 C9.299375 25.979375 10.59875 25.95875 11.9375 25.9375 C13.29165633 25.91600546 14.64756083 25.92851801 16 26 C17 27 17 27 17.0625 30.0625 C17.041875 31.031875 17.02125 32.00125 17 33 C17.82886719 32.94714844 18.65773438 32.89429688 19.51171875 32.83984375 C23.60445778 33.02775226 27.02665863 34.11364779 30.8125 35.5625 C31.51810059 35.8313501 32.22370117 36.1002002 32.95068359 36.37719727 C38.77716235 38.7076548 43.47331151 41.60989263 48 46 C48.804375 46.74636719 48.804375 46.74636719 49.625 47.5078125 C58.83662302 57.05527595 62.51359944 70.35971231 65 83 C65.38478516 84.49080078 65.38478516 84.49080078 65.77734375 86.01171875 C67.48095778 94.92771335 63.30340827 101.5379039 59.359375 109.25 C52.81583162 122.10966503 49.83951583 136.22656766 48.03222656 150.44897461 C45.95027568 166.61063441 42.4691832 190.40075982 30 202 C24.21034747 205.73611445 17.46262913 207.74559449 11 210 C9.5459375 210.5878125 9.5459375 210.5878125 8.0625 211.1875 C3.07576122 212.51051233 -1.85695133 212.80500289 -7 213 C-8.00546875 213.061875 -9.0109375 213.12375 -10.046875 213.1875 C-22.08184264 213.1875 -38.0748984 208.68718177 -46.86181641 200.20214844 C-49.74310311 196.48355656 -51.59842117 192.4492264 -53.23242188 188.05810547 C-53.98653426 186.03610565 -54.83770121 184.09125778 -55.734375 182.12890625 C-59.31710372 174.08649169 -61.85978088 165.74167992 -63 157 C-63.11287354 156.36908447 -63.22574707 155.73816895 -63.34204102 155.08813477 C-64.18183845 146.91454823 -59.23293339 140.38777609 -55.1875 133.6875 C-54.44032214 132.41442825 -53.69486412 131.14034546 -52.95117188 129.86523438 C-51.00567153 126.55214936 -49.04326082 123.25416374 -47 120 C-46.63132813 119.22019775 -46.26265625 118.44039551 -45.8828125 117.63696289 C-42.54778919 114.73741267 -38.32600212 115.51685034 -34.08203125 115.609375 C-33.10965012 115.61503479 -32.13726898 115.62069458 -31.13542175 115.62652588 C-28.027282 115.64893071 -24.92029176 115.69913519 -21.8125 115.75 C-19.70639685 115.77005967 -17.60027564 115.78831136 -15.49414062 115.8046875 C-10.32898364 115.84880907 -5.16468676 115.9178654 0 116 C0 115.01 0 114.02 0 113 C-0.56074722 113.0199855 -1.12149445 113.03997101 -1.69923401 113.06056213 C-7.55522838 113.26025008 -13.41025139 113.39563781 -19.26879883 113.49438477 C-21.45246683 113.53954401 -23.63586418 113.60088905 -25.81860352 113.67895508 C-28.96438332 113.78861657 -32.10655886 113.8392668 -35.25390625 113.87890625 C-36.2239711 113.92535782 -37.19403595 113.97180939 -38.1934967 114.01966858 C-42.50106631 114.02284993 -44.98192173 113.94519365 -48.22262573 110.93649292 C-49.978131 108.69242035 -51.54358887 106.44682388 -53 104 C-55.89436103 105.40405856 -58.24942663 106.87615849 -60.72265625 108.94140625 C-61.42036133 109.52051758 -62.11806641 110.09962891 -62.83691406 110.69628906 C-63.57135742 111.31213867 -64.30580078 111.92798828 -65.0625 112.5625 C-66.60020625 113.83990896 -68.13796662 115.11725277 -69.67578125 116.39453125 C-70.42037598 117.01537598 -71.1649707 117.6362207 -71.93212891 118.27587891 C-75.3751705 121.14657073 -78.82808436 124.00375426 -82.3125 126.82421875 C-83.75186891 127.98952178 -85.18886125 129.15797648 -86.609375 130.34619141 C-88.31032696 131.76771519 -90.0283963 133.16609906 -91.75 134.5625 C-92.26916992 135.0049707 -92.78833984 135.44744141 -93.32324219 135.90332031 C-96.23866422 138.22935633 -97.99010632 138.99900753 -101.73828125 139.375 C-105 139 -105 139 -107.4375 137.4375 C-109 135 -109 135 -109.875 131.8125 C-108.45506215 125.62562794 -103.82301796 122.83886159 -99 119 C-97.75476563 117.96939453 -97.75476563 117.96939453 -96.484375 116.91796875 C-94.23190109 115.05587759 -91.96484081 113.21319657 -89.69287109 111.375 C-86.19871754 108.53694508 -82.72565678 105.67314913 -79.25 102.8125 C-78.54093506 102.23024658 -77.83187012 101.64799316 -77.10131836 101.0480957 C-76.41303955 100.48179443 -75.72476074 99.91549316 -75.015625 99.33203125 C-74.34595703 98.78111816 -73.67628906 98.23020508 -72.98632812 97.66259766 C-70.4237583 95.5176738 -67.92357409 93.30488282 -65.43652344 91.07299805 C-64 90 -64 90 -62 90 C-62.495 88.88625 -62.99 87.7725 -63.5 86.625 C-66.609935 77.23567472 -66.85071135 64.2153612 -62.453125 55.234375 C-56.34186605 45.83749296 -48.00897989 37.92792018 -37 35 C-33.94110493 34.66353212 -30.88714749 34.53973889 -27.8125 34.4375 C-26.21469755 34.37747065 -24.61702605 34.31381797 -23.01953125 34.24609375 C-22.31932861 34.22216553 -21.61912598 34.1982373 -20.89770508 34.17358398 C-18.776451 34.05242663 -18.776451 34.05242663 -16 33 C-13.66700175 32.96045766 -11.33291811 32.95598268 -9 33 C-9.020625 32.030625 -9.04125 31.06125 -9.0625 30.0625 C-9 27 -9 27 -8 26 C-5.66702567 25.95907063 -3.33294775 25.95758277 -1 26 C-0.97293555 23.10410348 -0.95312971 20.20846205 -0.9375 17.3125 C-0.92493164 16.08756836 -0.92493164 16.08756836 -0.91210938 14.83789062 C-0.8984247 11.45777492 -0.90873533 8.42004421 -1.62890625 5.10546875 C-2 3 -2 3 0 0 Z " fill="#D5E8F2" transform="translate(260,228)"/>
<path d="M0 0 C1.10255127 0.00427002 2.20510254 0.00854004 3.34106445 0.01293945 C11.42415651 0.18239757 17.71822824 1.01993183 24.625 5.5 C25.52798828 6.04140625 25.52798828 6.04140625 26.44921875 6.59375 C33.33176775 11.44794073 37.26669972 20.43486131 39.15625 28.38671875 C40.94674466 40.27858742 40.69109342 54.43311664 33.96875 64.84765625 C28.32636326 71.78582367 22.08287942 75.79775333 13.625 78.5 C12.635 78.83 11.645 79.16 10.625 79.5 C5.87045226 79.88971703 3.54666739 79.9608337 -0.75 77.8125 C-4.37370785 74.62018595 -5.21573308 72.01122586 -5.71875 67.23828125 C-5.82327226 64.94663077 -5.92743651 62.65496394 -6.03125 60.36328125 C-6.09132676 57.37182041 -6.09132676 57.37182041 -8.375 55.5 C-14.86911219 55.5 -19.497198 58.35675701 -24.375 62.5 C-28.96481348 67.20714 -32.34959514 72.37996225 -35.5 78.125 C-36.1506543 79.30316284 -36.1506543 79.30316284 -36.81445312 80.50512695 C-40.30263593 87.00180126 -42.59560524 93.33406786 -44.375 100.5 C-44.90480469 102.0778125 -44.90480469 102.0778125 -45.4453125 103.6875 C-46.64744785 108.61726515 -46.74310757 113.25690543 -46.75 118.3125 C-46.77449219 119.24642578 -46.79898438 120.18035156 -46.82421875 121.14257812 C-46.852041 127.82455629 -45.80071557 133.67255625 -42.375 139.5 C-38.83221187 142.78814882 -35.70771754 144.28191895 -30.9375 145.0625 C-23.5739942 143.89984119 -17.93462221 140.50841546 -12.19921875 135.8671875 C-8.45900822 133.06403185 -5.69132834 132.20721146 -1 132.1875 C-0.08476562 132.17074219 0.83046875 132.15398437 1.7734375 132.13671875 C5.4190037 132.6011539 7.61570719 133.35967795 10.625 135.5 C11.44522735 138.19503271 11.90409663 140.3142673 12.1875 143.0625 C12.47327745 145.70407766 12.90691474 147.90708127 13.625 150.5 C16.05483516 151.99487414 16.05483516 151.99487414 18.625 152.5 C19.625 153.5 19.625 153.5 19.8125 156.875 C18.62786566 164.86771359 11.34100188 170.48140179 5.2578125 175.1796875 C-8.9345163 185.50014737 -24.1158793 190.66861635 -41.5625 190.75 C-42.64853516 190.770625 -43.73457031 190.79125 -44.85351562 190.8125 C-55.2516018 190.86246077 -63.28059493 188.38403235 -72.375 183.5 C-72.49488281 184.42425781 -72.49488281 184.42425781 -72.6171875 185.3671875 C-73.375 187.5 -73.375 187.5 -75.1328125 188.6953125 C-90.83197455 194.86099 -107.85214501 193.81699022 -124.42724609 193.76074219 C-127.82340268 193.74932654 -131.21924367 193.75594494 -134.61538887 193.76788712 C-137.91287394 193.7769417 -141.21032327 193.77056288 -144.5078125 193.765625 C-146.30522385 193.77169769 -146.30522385 193.77169769 -148.13894653 193.77789307 C-171.89127522 193.64789125 -171.89127522 193.64789125 -180.375 188.5 C-181.109375 186.3984375 -181.109375 186.3984375 -181.375 184.5 C-176.75 181.5 -176.75 181.5 -173.375 181.5 C-172.715 182.49 -172.055 183.48 -171.375 184.5 C-168.41779372 185.16680368 -168.41779372 185.16680368 -165.375 184.5 C-164.97410156 183.69175781 -164.57320312 182.88351562 -164.16015625 182.05078125 C-162.375 179.5 -162.375 179.5 -158.8984375 178.57421875 C-157.5181606 178.42052125 -156.13481561 178.29272818 -154.75 178.1875 C-154.03521484 178.11611816 -153.32042969 178.04473633 -152.58398438 177.97119141 C-147.50363353 177.49562819 -142.47651275 177.31780312 -137.375 177.5 C-138.035 175.19 -138.695 172.88 -139.375 170.5 C-141.355 170.5 -143.335 170.5 -145.375 170.5 C-145.375 170.17 -145.375 169.84 -145.375 169.5 C-144.50101563 169.46132813 -144.50101563 169.46132813 -143.609375 169.421875 C-136.3900673 168.92242604 -130.13119355 167.01910774 -123.375 164.5 C-122.44816406 164.16613281 -121.52132812 163.83226562 -120.56640625 163.48828125 C-111.96972156 160.25654094 -107.86040846 156.57056895 -103.921875 148.2265625 C-98.72651252 136.12387968 -95.69756615 123.53484427 -93.70166016 110.56298828 C-92.74415558 104.51596759 -91.55158575 98.50743516 -90.375 92.5 C-90.05595703 90.83517578 -90.05595703 90.83517578 -89.73046875 89.13671875 C-85.0224571 66.58782084 -73.08110743 45.04345678 -58.375 27.5 C-57.71242188 26.70464844 -57.04984375 25.90929687 -56.3671875 25.08984375 C-42.33210448 9.80922306 -20.56993728 -0.12031031 0 0 Z " fill="#38B6FE" transform="translate(400.375,270.5)"/>
<path d="M0 0 C3.59159187 2.37366389 6.95183814 4.95183814 10 8 C11.42975413 8.17895301 12.86690507 8.29964855 14.3046875 8.39453125 C39.23446025 10.24369285 39.23446025 10.24369285 49.0625 19.73828125 C55.88002998 27.6966479 59.08859273 38.35077806 59.0300293 48.69555664 C59.02569382 49.68826065 59.02135834 50.68096466 59.01689148 51.70375061 C59.01131729 52.46151291 59.0057431 53.21927521 59 54 C58.42894531 53.99476318 57.85789062 53.98952637 57.26953125 53.98413086 C51.29868559 53.93726114 45.32976014 53.94657825 39.35888672 53.98779297 C37.13395792 53.99587891 34.90892979 53.98987816 32.68408203 53.96923828 C29.47558596 53.94196248 26.27086469 53.96618291 23.0625 54 C22.07572266 53.9805835 21.08894531 53.96116699 20.07226562 53.94116211 C14.4052661 54.05817264 11.5343721 54.867563 7.4765625 58.94970703 C6.55931396 60.01851608 6.55931396 60.01851608 5.62353516 61.10891724 C0.48303952 67.09653177 -8.70398842 69.41455654 -16.296875 70.25390625 C-23.61115892 70.61496167 -32.36368473 69.14172067 -38.0390625 64.23828125 C-39.95854642 62.71060426 -39.95854642 62.71060426 -42.34765625 63.47265625 C-45.7313002 65.42111691 -48.54596576 67.84265877 -51.4375 70.4375 C-56.20812745 74.62688294 -61.04014725 78.67816176 -66.0625 82.5625 C-71.47360966 86.75280587 -76.73223162 91.09023459 -81.91430664 95.56079102 C-86.97054544 99.90468013 -86.97054544 99.90468013 -91.375 100.3125 C-95 100 -95 100 -97.4375 98.4375 C-99 96 -99 96 -99.875 92.8125 C-98.45506215 86.62562794 -93.82301796 83.83886159 -89 80 C-87.75476563 78.96939453 -87.75476563 78.96939453 -86.484375 77.91796875 C-84.23190109 76.05587759 -81.96484081 74.21319657 -79.69287109 72.375 C-76.19871754 69.53694508 -72.72565678 66.67314913 -69.25 63.8125 C-68.54093506 63.23024658 -67.83187012 62.64799316 -67.10131836 62.0480957 C-66.41303955 61.48179443 -65.72476074 60.91549316 -65.015625 60.33203125 C-64.34595703 59.78111816 -63.67628906 59.23020508 -62.98632812 58.66259766 C-60.4237583 56.5176738 -57.92357409 54.30488282 -55.43652344 52.07299805 C-54 51 -54 51 -52 51 C-52.495 49.88625 -52.99 48.7725 -53.5 47.625 C-56.609935 38.23567472 -56.85071135 25.2153612 -52.453125 16.234375 C-40.45938859 -2.2076068 -20.62624328 -10.18071352 0 0 Z " fill="#2A56F0" transform="translate(250,267)"/>
<path d="M0 0 C13.37523706 -0.22726887 26.55348067 0.46695695 39.8828125 1.53125 C41.91970253 1.68879295 43.95664004 1.84572315 45.99362183 2.0020752 C51.29079025 2.41028814 56.58728304 2.82668223 61.88366699 3.24493408 C67.31397953 3.67225446 72.74490562 4.09162646 78.17578125 4.51171875 C88.78446046 5.33348015 99.39244126 6.16390788 110 7 C109.53670386 9.38556655 109.06979683 11.77033255 108.60083008 14.15478516 C108.47126167 14.82393448 108.34169327 15.4930838 108.20819855 16.18251038 C107.10878573 21.7487995 105.60876044 27.04340739 103.6875 32.375 C103.38336182 33.22642578 103.07922363 34.07785156 102.76586914 34.95507812 C99.49808488 43.79621689 96.26678556 50.05779207 88 55 C85.69537588 55.94803856 83.35942178 56.82300356 81 57.625 C79.824375 58.02976562 78.64875 58.43453125 77.4375 58.8515625 C76.303125 59.23054688 75.16875 59.60953125 74 60 C72.9790625 60.36480469 71.958125 60.72960937 70.90625 61.10546875 C65.98645897 62.61975927 61.12121127 62.80583085 56 63 C54.49179688 63.0928125 54.49179688 63.0928125 52.953125 63.1875 C40.91815736 63.1875 24.9251016 58.68718177 16.13818359 50.20214844 C13.25689689 46.48355656 11.40157883 42.4492264 9.76757812 38.05810547 C9.01346574 36.03610565 8.16229879 34.09125778 7.265625 32.12890625 C2.66342966 21.79534742 -0.09554618 11.32473677 0 0 Z " fill="#D4E9F2" transform="translate(197,378)"/>
<path d="M0 0 C3 -0.3125 3 -0.3125 6 0 C6.66 0.66 7.32 1.32 8 2 C7.70462173 3.67381019 7.36106097 5.33911955 7 7 C6.76877689 11.15375808 6.96008671 14.97033599 8 19 C8.03888349 21.33300933 8.0448635 23.66709801 8 26 C9.299375 25.979375 10.59875 25.95875 11.9375 25.9375 C13.29165633 25.91600546 14.64756083 25.92851801 16 26 C17 27 17 27 17.0625 30.0625 C17.041875 31.031875 17.02125 32.00125 17 33 C17.82886719 32.94714844 18.65773438 32.89429688 19.51171875 32.83984375 C23.60445778 33.02775226 27.02665863 34.11364779 30.8125 35.5625 C31.51810059 35.8313501 32.22370117 36.1002002 32.95068359 36.37719727 C38.77716235 38.7076548 43.47331151 41.60989263 48 46 C48.53625 46.49757813 49.0725 46.99515625 49.625 47.5078125 C58.79818197 57.01543339 62.59156803 70.37827095 65 83 C65.21011719 84.09828125 65.42023438 85.1965625 65.63671875 86.328125 C66.67903925 93.78693227 65.27895992 98.80916437 61 105 C58.375 107.9375 58.375 107.9375 56 110 C55.31000349 110.79327383 55.31000349 110.79327383 54.60606766 111.60257339 C52.58936999 113.35728588 51.57355007 113.38845253 48.92791748 113.42132568 C48.10090836 113.43845612 47.27389923 113.45558655 46.42182922 113.47323608 C45.51788925 113.47658966 44.61394928 113.47994324 43.68261719 113.48339844 C42.25042091 113.50574051 42.25042091 113.50574051 40.78929138 113.52853394 C37.62508697 113.57241006 34.46133386 113.59280653 31.296875 113.609375 C29.0983275 113.62663026 26.89978014 113.64390345 24.70123291 113.66119385 C20.08774714 113.69272813 15.47441825 113.7102525 10.86083984 113.72070312 C4.95414152 113.73714812 -0.95047853 113.80919956 -6.85652542 113.89461899 C-11.39996345 113.95055049 -15.94290298 113.96611745 -20.48665619 113.97071075 C-22.66361591 113.97978267 -24.84056737 114.00384402 -27.01718903 114.0432663 C-44.07619169 114.33014356 -44.07619169 114.33014356 -48.89245605 111.00012207 C-50.71144775 108.70919563 -51.92274823 106.70760299 -53 104 C-53.33 103.34 -53.66 102.68 -54 102 C-52.375 101.25 -52.375 101.25 -50 101 C-48.59300067 101.93799956 -47.19026507 102.88367753 -45.8203125 103.875 C-38.25811456 108.54863306 -29.25316185 109.12160392 -20.76171875 107.30859375 C-12.75404887 105.1011738 -6.14637665 102.1772024 -1.06176758 95.42675781 C3.41923513 91.87511386 7.21248055 92.36863467 12.76953125 92.51171875 C13.80567062 92.51879349 14.84181 92.52586823 15.90934753 92.53315735 C19.21113997 92.56109393 22.51122216 92.6238337 25.8125 92.6875 C28.05401193 92.7125837 30.2955505 92.73539674 32.53710938 92.75585938 C38.0253208 92.81091794 43.51253821 92.89453719 49 93 C48.72051429 90.4780057 48.43134738 87.95773358 48.13671875 85.4375 C48.05965698 84.73302734 47.98259521 84.02855469 47.90319824 83.30273438 C46.66458168 72.88995781 43.24242207 62.89706806 35 56 C32.42849021 54.34047914 29.85994446 53.0798295 27 52 C26.14277344 51.65066406 25.28554688 51.30132812 24.40234375 50.94140625 C20.67004745 49.90870429 17.26218872 49.67542568 13.41137695 49.46923828 C-0.50483482 48.68642851 -0.50483482 48.68642851 -4.6875 44.625 C-5.22246094 44.00496094 -5.75742188 43.38492188 -6.30859375 42.74609375 C-8.96179461 40.0071081 -12.16278984 39.07010103 -15.703125 37.82421875 C-17.90769233 37.03312401 -19.92854351 36.08798976 -22 35 C-17.49646738 33.24252386 -13.82360189 32.80705592 -9 33 C-9.020625 32.030625 -9.04125 31.06125 -9.0625 30.0625 C-9 27 -9 27 -8 26 C-5.66702567 25.95907063 -3.33294775 25.95758277 -1 26 C-0.97293555 23.10410348 -0.95312971 20.20846205 -0.9375 17.3125 C-0.92493164 16.08756836 -0.92493164 16.08756836 -0.91210938 14.83789062 C-0.8984247 11.45777492 -0.90873533 8.42004421 -1.62890625 5.10546875 C-2 3 -2 3 0 0 Z " fill="#A8D7E9" transform="translate(260,228)"/>
<path d="M0 0 C5.2107579 4.11020989 8.90254849 9.38733297 11 15.6796875 C12.1652556 33.92262357 12.1652556 33.92262357 7 40.6796875 C6.61070312 41.2778125 6.22140625 41.8759375 5.8203125 42.4921875 C1.608198 48.27449853 -4.2810778 51.49891732 -11 53.6796875 C-20.46575172 55.05580925 -28.05173425 54.03840528 -36 48.6796875 C-37.0725 47.9990625 -38.145 47.3184375 -39.25 46.6171875 C-44.55653316 41.72001547 -47.5209455 34.95492537 -48.55078125 27.9140625 C-48.84416323 19.63230843 -47.60118397 13.57475619 -43 6.6796875 C-42.443125 5.7721875 -41.88625 4.8646875 -41.3125 3.9296875 C-29.86027116 -7.21302165 -13.36264197 -8.82143161 0 0 Z " fill="#001019" transform="translate(250,275.3203125)"/>
<path d="M0 0 C0.33 0 0.66 0 1 0 C1.05945801 1.05574219 1.05945801 1.05574219 1.12011719 2.1328125 C2.53138466 26.02299774 4.62288683 49.70389348 23 67 C21.924918 69.65186894 20.87862741 71.51255635 18.32421875 72.9296875 C3.07596361 78.50061311 -14.12667634 77.31485373 -30.05224609 77.26074219 C-33.44840268 77.24932654 -36.84424367 77.25594494 -40.24038887 77.26788712 C-43.53787394 77.2769417 -46.83532327 77.27056288 -50.1328125 77.265625 C-51.93022385 77.27169769 -51.93022385 77.27169769 -53.76394653 77.27789307 C-77.51627522 77.14789125 -77.51627522 77.14789125 -86 72 C-86.734375 69.8984375 -86.734375 69.8984375 -87 68 C-82.375 65 -82.375 65 -79 65 C-78.34 65.99 -77.68 66.98 -77 68 C-74.04279372 68.66680368 -74.04279372 68.66680368 -71 68 C-70.39865234 66.78763672 -70.39865234 66.78763672 -69.78515625 65.55078125 C-68 63 -68 63 -64.5234375 62.07421875 C-63.1431606 61.92052125 -61.75981561 61.79272818 -60.375 61.6875 C-59.66021484 61.61611816 -58.94542969 61.54473633 -58.20898438 61.47119141 C-53.12863353 60.99562819 -48.10151275 60.81780312 -43 61 C-43.66 58.69 -44.32 56.38 -45 54 C-46.98 54 -48.96 54 -51 54 C-51 53.67 -51 53.34 -51 53 C-50.41734375 52.97421875 -49.8346875 52.9484375 -49.234375 52.921875 C-42.0150673 52.42242604 -35.75619355 50.51910774 -29 48 C-28.07316406 47.66613281 -27.14632812 47.33226562 -26.19140625 46.98828125 C-17.60391471 43.75999691 -13.50667461 40.07847708 -9.55078125 31.7578125 C-5.18982347 21.61462998 -2.24038962 10.78949813 0 0 Z " fill="#D2E2FB" transform="translate(306,387)"/>
<path d="M0 0 C0.495 0.495 0.99 0.99 1.5 1.5 C0.61172889 6.77352531 -1.00014002 11.3800192 -4.5 15.5 C-7.38811991 16.59641589 -9.34764765 16.5534297 -12.5 16.5 C-12.73074219 17.69625 -12.96148438 18.8925 -13.19921875 20.125 C-14.67944947 26.76849378 -17.01662013 33.10264403 -19.3125 39.5 C-19.73853516 40.71945312 -20.16457031 41.93890625 -20.60351562 43.1953125 C-27.05774523 61.27887262 -27.05774523 61.27887262 -31.5 63.5 C-36.71653972 63.94396083 -36.71653972 63.94396083 -39.375 62.4375 C-42.210215 57.55462973 -40.14955254 51.25124886 -38.8125 46.125 C-38.63750977 45.44888672 -38.46251953 44.77277344 -38.28222656 44.07617188 C-36.2049072 36.16568173 -33.86409551 28.32864415 -31.5 20.5 C-32.44875 20.066875 -33.3975 19.63375 -34.375 19.1875 C-37.5 17.5 -37.5 17.5 -39.5 14.5 C-39.974375 14.974375 -40.44875 15.44875 -40.9375 15.9375 C-44.61644797 18.18076096 -48.2621112 18.23739578 -52.5 18.5 C-52.7165625 19.61375 -52.7165625 19.61375 -52.9375 20.75 C-53.40187492 23.02027739 -53.91863569 25.25759479 -54.5 27.5 C-53.571875 27.438125 -52.64375 27.37625 -51.6875 27.3125 C-48.5 27.5 -48.5 27.5 -46.5625 28.75 C-45.5 30.5 -45.5 30.5 -45.8125 32.6875 C-46.039375 33.285625 -46.26625 33.88375 -46.5 34.5 C-47.16 34.5 -47.82 34.5 -48.5 34.5 C-48.73074219 35.14195312 -48.96148438 35.78390625 -49.19921875 36.4453125 C-50.5 38.5 -50.5 38.5 -52.70703125 39.0546875 C-53.56683594 39.16039062 -54.42664063 39.26609375 -55.3125 39.375 C-58.08291099 39.94582188 -58.08291099 39.94582188 -60.5 41.5 C-62.33939015 44.95425381 -63.41373671 48.28988585 -64.46484375 52.0546875 C-65.53670914 55.6221791 -66.82552384 58.82552384 -69.5 61.5 C-76.86484144 61.97515106 -76.86484144 61.97515106 -79.15527344 60.26171875 C-80.5 58.5 -80.5 58.5 -80.54443359 56.45996094 C-78.74971718 47.93211443 -76.36404158 39.59199282 -73.86914062 31.24658203 C-73.12329087 28.7442659 -72.39327219 26.23767762 -71.6640625 23.73046875 C-71.18584592 22.11690561 -70.70671095 20.50361432 -70.2265625 18.890625 C-70.01287018 18.15193176 -69.79917786 17.41323853 -69.57901001 16.65216064 C-67.85124276 10.94825458 -65.89439592 5.25199701 -60.9375 1.625 C-56.14387014 0.05617568 -51.51945143 -0.27814579 -46.5 -0.5 C-45.62859375 -0.54125 -44.7571875 -0.5825 -43.859375 -0.625 C-41.73987952 -0.67969666 -39.61780135 -0.60084768 -37.5 -0.5 C-35.14046906 1.85953094 -35.00858587 3.27895617 -34.5 6.5 C-33.84773437 6.16226562 -33.19546875 5.82453125 -32.5234375 5.4765625 C-23.8946792 1.07309587 -9.42693371 -5.65616022 0 0 Z " fill="#3BB6FE" transform="translate(590.5,377.5)"/>
<path d="M0 0 C4.08918872 4.08918872 6.81165512 7.59583304 7.265625 13.390625 C7.21112207 26.85284912 7.21112207 26.85284912 5 33 C4.68160156 33.98355469 4.36320312 34.96710938 4.03515625 35.98046875 C-0.40139255 48.7224759 -6.81641675 57.90820837 -19 64 C-25.40109429 64.83285613 -30.03402697 64.21045645 -35.3125 60.421875 C-40.05679062 56.42437086 -42.41793628 52.26846729 -43.2578125 46.109375 C-44.00270644 32.70128416 -37.51691036 18.01476035 -29 7.9375 C-23.53033458 2.23047174 -18.9266423 0.70442269 -11.171875 0.2109375 C-2.48776679 -0.63248308 -2.48776679 -0.63248308 0 0 Z " fill="#3AB6FE" transform="translate(482,298)"/>
<path d="M0 0 C6.01483061 3.32963837 13.83926147 8.83902444 16.125 15.5625 C17.30129039 27.06552576 15.76656707 36.89712401 8.875 46.375 C2.70962076 53.66135729 -2.70375564 57.02730192 -12.140625 58.82421875 C-15.03598633 59.60596631 -16.52201786 60.77304719 -18.875 62.5625 C-22.62659828 62.49550717 -24.99026482 62.20033234 -28.05859375 59.98828125 C-30.53040523 56.68721689 -30.51804992 53.78316344 -30.4375 49.8125 C-30.42944336 49.06605225 -30.42138672 48.31960449 -30.41308594 47.55053711 C-30.03440527 36.7113734 -25.9824903 26.88063205 -21.765625 17.0078125 C-20.70912606 14.10707417 -20.12612808 11.20893201 -19.5 8.1875 C-18.54112273 4.19816035 -18.12556954 2.81889673 -15.1875 -0.1875 C-9.70476026 -2.25645839 -5.31195176 -2.3239789 0 0 Z " fill="#3AB6FE" transform="translate(516.875,299.4375)"/>
<path d="M0 0 C3.09006262 2.58702917 4.37569896 4.43827183 5.05859375 8.40625 C5.29899866 16.89112903 2.51321523 24.88897712 -2.625 31.6875 C-5.89576912 34.80614032 -9.38382199 37.04682077 -13.3125 39.25 C-12.33796875 40.55324219 -12.33796875 40.55324219 -11.34375 41.8828125 C-10.49925705 43.04633612 -9.65554809 44.21042906 -8.8125 45.375 C-8.38324219 45.94476563 -7.95398438 46.51453125 -7.51171875 47.1015625 C-4.76562575 50.93737495 -3.60188852 53.53536617 -4.3125 58.25 C-4.9725 58.91 -5.6325 59.57 -6.3125 60.25 C-9 60 -9 60 -12.3125 59.25 C-14.045 59.064375 -14.045 59.064375 -15.8125 58.875 C-21.30065691 56.32692715 -22.7885904 51.52649557 -25.3125 46.25 C-25.8075 45.755 -25.8075 45.755 -26.3125 45.25 C-26.55484375 46.15363281 -26.7971875 47.05726563 -27.046875 47.98828125 C-27.38203125 49.16777344 -27.7171875 50.34726562 -28.0625 51.5625 C-28.54976563 53.32013672 -28.54976563 53.32013672 -29.046875 55.11328125 C-30.38801156 58.43714747 -31.18911472 59.58849993 -34.3125 61.25 C-37.90284613 61.63467994 -40.39847404 61.62498501 -43.75 60.25 C-46.1367247 57.19499238 -45.61496958 53.95003385 -45.3125 50.25 C-44.8148481 47.51710919 -44.07288249 44.90140576 -43.25 42.25 C-42.91826782 41.15631104 -42.91826782 41.15631104 -42.57983398 40.04052734 C-40.10560683 32.16945049 -36.88773886 24.67720526 -33.3125 17.25 C-32.79429687 16.17105469 -32.27609375 15.09210938 -31.7421875 13.98046875 C-28.45735751 7.5569923 -25.76441535 2.90260494 -18.734375 0.29296875 C-12.1847956 -1.66653656 -6.30799168 -3.33252391 0 0 Z " fill="#3AB6FE" transform="translate(470.3125,377.75)"/>
<path d="M0 0 C2.375 1.1875 2.375 1.1875 4 3 C4.6875 5.625 4.6875 5.625 5 8 C5.495 8.495 5.495 8.495 6 9 C5.93298762 18.80684298 4.06798704 28.56092987 2.41601562 38.19677734 C1.99488028 40.65488304 1.582741 43.11437766 1.171875 45.57421875 C0.90676346 47.14592003 0.64115715 48.71753795 0.375 50.2890625 C0.25205566 51.02025299 0.12911133 51.75144348 0.00244141 52.50479126 C-0.50158569 55.43245004 -1.05877444 58.17632331 -2 61 C-5.48868651 63.32579101 -6.89718519 63.41865457 -11 63 C-13.20703125 61.8046875 -13.20703125 61.8046875 -15 60 C-15.171875 57.51953125 -15.171875 57.51953125 -14.75 54.8125 C-14.62109375 53.91144531 -14.4921875 53.01039063 -14.359375 52.08203125 C-14.24078125 51.39496094 -14.1221875 50.70789063 -14 50 C-15.0725 50.66 -16.145 51.32 -17.25 52 C-20.30980686 53.88295807 -21.1335864 54 -25 54 C-25.226875 54.7425 -25.45375 55.485 -25.6875 56.25 C-27.3173129 59.66484607 -28.7566375 61.0539825 -32 63 C-35.6875 63.4375 -35.6875 63.4375 -39 63 C-41.4983805 59.25242925 -41.4981631 56.33626123 -41 52 C-40.27091406 49.21260089 -39.21979857 46.63506545 -38.0625 44 C-37.74893555 43.26869873 -37.43537109 42.53739746 -37.11230469 41.78393555 C-18.18965399 -1.2544589 -18.18965399 -1.2544589 0 0 Z " fill="#3AB6FE" transform="translate(509,377)"/>
<path d="M0 0 C35.64 0 71.28 0 108 0 C108 0.33 108 0.66 108 1 C107.030625 1.02578125 106.06125 1.0515625 105.0625 1.078125 C81.2019808 1.9710905 57.78817886 10.85606694 41.0390625 28.49609375 C35.81923591 34.90588081 31.30395254 41.89116098 26.81835938 48.82714844 C25.90258929 50.23380429 24.95474002 51.61949755 24 53 C23.67 53 23.34 53 23 53 C22.90203125 51.99582031 22.8040625 50.99164063 22.703125 49.95703125 C20.58131518 29.89359235 14.37119425 14.37119425 0 0 Z " fill="#D6E3FC" transform="translate(302,269)"/>
<path d="M0 0 C3 -0.3125 3 -0.3125 6 0 C6.66 0.66 7.32 1.32 8 2 C7.70462173 3.67381019 7.36106097 5.33911955 7 7 C6.76877689 11.15375808 6.96008671 14.97033599 8 19 C8.03888349 21.33300933 8.0448635 23.66709801 8 26 C9.299375 25.979375 10.59875 25.95875 11.9375 25.9375 C13.29165633 25.91600546 14.64756083 25.92851801 16 26 C17 27 17 27 17.0625 30.0625 C17.041875 31.031875 17.02125 32.00125 17 33 C17.86109375 32.96390625 18.7221875 32.9278125 19.609375 32.890625 C23.15245023 33.00491775 25.88836365 33.65197808 29.25 34.75 C30.80460937 35.23726563 30.80460937 35.23726563 32.390625 35.734375 C35.39050334 37.18940581 35.80538703 37.99049426 37 41 C37.88723654 42.0262013 38.80610621 43.02565802 39.75 44 C49.44829277 55.16486388 53.91876433 71.99428005 54.3125 86.5625 C54.34988281 87.47128906 54.38726562 88.38007813 54.42578125 89.31640625 C53.82058866 93.13078525 52.92469327 94.42281877 50 97 C46.22622717 97.71710784 42.50077169 97.58036523 38.671875 97.48828125 C37.56773254 97.48120651 36.46359009 97.47413177 35.32598877 97.46684265 C31.79996955 97.43885763 28.27553913 97.37610756 24.75 97.3125 C22.35939793 97.28742262 19.96877098 97.26460848 17.578125 97.24414062 C11.71820806 97.18901746 5.85921753 97.10534896 0 97 C0.66 95.68 1.32 94.36 2 93 C17.51 93 33.02 93 49 93 C46.75619616 72.25730822 46.75619616 72.25730822 35 56 C32.42849021 54.34047914 29.85994446 53.0798295 27 52 C26.14277344 51.65066406 25.28554688 51.30132812 24.40234375 50.94140625 C20.67004745 49.90870429 17.26218872 49.67542568 13.41137695 49.46923828 C-0.50483482 48.68642851 -0.50483482 48.68642851 -4.6875 44.625 C-5.22246094 44.00496094 -5.75742188 43.38492188 -6.30859375 42.74609375 C-8.96179461 40.0071081 -12.16278984 39.07010103 -15.703125 37.82421875 C-17.90769233 37.03312401 -19.92854351 36.08798976 -22 35 C-17.49646738 33.24252386 -13.82360189 32.80705592 -9 33 C-9.020625 32.030625 -9.04125 31.06125 -9.0625 30.0625 C-9 27 -9 27 -8 26 C-5.66702567 25.95907063 -3.33294775 25.95758277 -1 26 C-0.97293555 23.10410348 -0.95312971 20.20846205 -0.9375 17.3125 C-0.92912109 16.49587891 -0.92074219 15.67925781 -0.91210938 14.83789062 C-0.8984247 11.45777492 -0.90873533 8.42004421 -1.62890625 5.10546875 C-2 3 -2 3 0 0 Z " fill="#D3E7F1" transform="translate(260,228)"/>
<path d="M0 0 C13.126066 -0.46509683 25.67133061 0.73706252 36.25 9.125 C43.0834924 15.51017183 46.55537676 24.88595417 48 34 C48 37.3 48 40.6 48 44 C32.82 44 17.64 44 2 44 C4 40 4 40 6.12890625 39.0234375 C6.93199219 38.80945313 7.73507812 38.59546875 8.5625 38.375 C10.94743766 37.7597305 10.94743766 37.7597305 13 37 C13.33 36.34 13.66 35.68 14 35 C13.443125 35.495 12.88625 35.99 12.3125 36.5 C9.61837017 38.24754367 8.14624993 38.26218749 5 38 C5.33 36.7625 5.66 35.525 6 34.25 C8.38086464 23.14509121 6.86629485 15.1602338 2 5 C1.32077702 3.33841089 0.64987814 1.67328438 0 0 Z " fill="#012C44" transform="translate(261,276)"/>
<path d="M0 0 C2 2 2 2 2.375 4.8125 C1.88453072 8.98148886 1.16331304 10.20451406 -2 13 C-3.81462746 13.69666274 -5.65110771 14.33765911 -7.5 14.9375 C-11.46297802 16.24264076 -12.79685406 16.76783321 -15.625 20 C-17.15292014 23.09110136 -17.15292014 23.09110136 -18 27 C-14.7 26.67 -11.4 26.34 -8 26 C-8.29464901 29.24113913 -8.64294178 31.4792901 -10.5 34.1875 C-13.04231536 36.03067864 -14.51226183 36.41246376 -17.5 37.125 C-20.68633101 38.0436292 -21.71687856 38.5366421 -23.47265625 41.41015625 C-24.44670519 43.89240999 -25.23682444 46.44502094 -26 49 C-21.05 49 -16.1 49 -11 49 C-11 50.32 -11 51.64 -11 53 C-10.34 53 -9.68 53 -9 53 C-9.54606623 56.82246363 -11.02579418 58.58848176 -14 61 C-19.08181607 63.16690488 -23.69748723 63.33463504 -29.125 63.3125 C-29.92292969 63.32861328 -30.72085938 63.34472656 -31.54296875 63.36132812 C-34.97652981 63.3641942 -37.40485464 63.2847146 -40.53125 61.7890625 C-43.93629146 57.64143222 -42.19362771 51.19041345 -41.75 46.171875 C-40.39421549 35.83401812 -36.56010636 25.62941309 -31.6875 16.4375 C-29.79091305 13.05993058 -29.79091305 13.05993058 -29.5625 9.1875 C-29 6 -29 6 -27 4.25 C-26.01 3.8375 -25.02 3.425 -24 3 C-23.40445313 2.72285156 -22.80890625 2.44570313 -22.1953125 2.16015625 C-15.15432072 -0.72266491 -7.49107564 -0.71299484 0 0 Z " fill="#3AB6FE" transform="translate(574,298)"/>
<path d="M0 0 C2.80233754 -0.01968452 5.60189341 -0.0821039 8.40356445 -0.14453125 C24.28108848 -0.32688673 24.28108848 -0.32688673 30.67871094 5.13574219 C33.17490516 7.15261732 35.28750064 7.09228016 38.40551758 6.85546875 C39.34524414 6.80132812 40.2849707 6.7471875 41.25317383 6.69140625 C42.28764648 6.58699219 42.28764648 6.58699219 43.34301758 6.48046875 C43.67301758 5.82046875 44.00301758 5.16046875 44.34301758 4.48046875 C45.60114258 4.60421875 46.85926758 4.72796875 48.15551758 4.85546875 C48.86321289 4.92507813 49.5709082 4.9946875 50.30004883 5.06640625 C52.34301758 5.48046875 52.34301758 5.48046875 55.34301758 7.48046875 C53.84239575 11.18251041 53.84239575 11.18251041 51.70629883 12.45703125 C35.98354207 17.4284172 19.59228366 16.79659215 3.29077148 16.74121094 C-0.10538511 16.72979529 -3.50122609 16.73641369 -6.89737129 16.74835587 C-10.19485637 16.75741045 -13.4923057 16.75103163 -16.78979492 16.74609375 C-18.58720627 16.75216644 -18.58720627 16.75216644 -20.42092896 16.75836182 C-44.17325764 16.62836 -44.17325764 16.62836 -52.65698242 11.48046875 C-53.39135742 9.37890625 -53.39135742 9.37890625 -53.65698242 7.48046875 C-49.03198242 4.48046875 -49.03198242 4.48046875 -45.65698242 4.48046875 C-44.66698242 5.96546875 -44.66698242 5.96546875 -43.65698242 7.48046875 C-40.69977614 8.14727243 -40.69977614 8.14727243 -37.65698242 7.48046875 C-37.24005127 6.67158203 -36.82312012 5.86269531 -36.39355469 5.02929688 C-34.65698242 2.48046875 -34.65698242 2.48046875 -31.61767578 1.57226562 C-30.36092041 1.44916016 -29.10416504 1.32605469 -27.80932617 1.19921875 C-27.11169662 1.12948853 -26.41406708 1.0597583 -25.69529724 0.98791504 C-17.15158716 0.21387777 -8.57426621 0.03639911 0 0 Z " fill="#2386B8" transform="translate(272.656982421875,447.51953125)"/>
<path d="M0 0 C3.16695049 1.43111336 5.16101248 3.04189179 7 6 C7.99753892 9.88624538 7.82849873 13.27601753 6.08203125 16.91015625 C5 18.5625 5 18.5625 3 21 C6.12498166 21.3373846 6.12498166 21.3373846 8.1875 19 C8.785625 18.34 9.38375 17.68 10 17 C12.95409701 18.37154504 15.44008376 19.98863724 18 22 C17.35455571 25.48539917 15.89865603 28.02819057 14 31 C15.32 31.99 16.64 32.98 18 34 C17.52797514 38.24822374 15.03344482 40.19989709 12 43 C11.401875 42.690625 10.80375 42.38125 10.1875 42.0625 C7.91043228 40.89790296 7.91043228 40.89790296 5 40 C2.98074133 40.76600582 2.98074133 40.76600582 0.875 41.9375 C-4.48173447 44.43325129 -9.34173632 45.3257661 -15.015625 43.26953125 C-18.94494711 41.24708605 -21.51834441 39.16715636 -23 35 C-23.29563856 29.92795101 -22.7385856 26.88269986 -19.4375 22.9375 C-18.633125 22.298125 -17.82875 21.65875 -17 21 C-17.33 19.96875 -17.66 18.9375 -18 17.875 C-19.39670165 12.84484987 -19.80717481 9.49903892 -17.25 4.75 C-12.64306405 -0.8806995 -6.91560873 -1.08117263 0 0 Z " fill="#5473FE" transform="translate(388,352)"/>
<path d="M0 0 C2.9156164 3.54039134 5.50127818 7.1626772 8 11 C2.39080749 16.17885763 -3.44376829 20.96777946 -9.47729492 25.63427734 C-14.51695297 29.55754261 -19.35762151 33.68292613 -24.11791992 37.94042969 C-33.34818773 46.05099639 -33.34818773 46.05099639 -39.25 45.9375 C-41.99335704 45.00226465 -43.23500989 44.25526514 -45 42 C-45.99 42.495 -45.99 42.495 -47 43 C-46.44896276 39.21788076 -44.99783255 37.75082941 -42.125 35.3125 C-41.30257812 34.60996094 -40.48015625 33.90742188 -39.6328125 33.18359375 C-35.6736269 29.89993685 -31.70312814 26.63219985 -27.70898438 23.39111328 C-24.21200148 20.5445692 -20.73178578 17.67759405 -17.25 14.8125 C-16.54101562 14.23032715 -15.83203125 13.6481543 -15.1015625 13.04833984 C-14.41320312 12.48195801 -13.72484375 11.91557617 -13.015625 11.33203125 C-12.34595703 10.78111816 -11.67628906 10.23020508 -10.98632812 9.66259766 C-8.4237583 7.5176738 -5.92357409 5.30488282 -3.43652344 3.07299805 C-2 2 -2 2 0 2 C0 1.34 0 0.68 0 0 Z " fill="#2D58F4" transform="translate(198,316)"/>
<path d="M0 0 C0.33 0.66 0.66 1.32 1 2 C2.134375 1.95875 3.26875 1.9175 4.4375 1.875 C9.14383562 1.85816159 13.46316004 2.82378223 18 4 C14.54400768 11.34398367 10.30964988 18.13016207 6 25 C5.46246094 25.86238281 4.92492187 26.72476562 4.37109375 27.61328125 C3.2504586 29.41076726 2.12580537 31.20574769 1 33 C-4.39855625 32.44912691 -8.45286003 30.52800376 -13.1875 28.0625 C-13.89841797 27.70220703 -14.60933594 27.34191406 -15.34179688 26.97070312 C-18.35708955 25.43043603 -21.17588068 23.88274622 -24 22 C-22.45216758 17.59383704 -18.96998103 15.37788609 -15.375 12.6875 C-14.10805601 11.71786683 -12.84242531 10.74651524 -11.578125 9.7734375 C-10.65870117 9.06719238 -10.65870117 9.06719238 -9.72070312 8.34667969 C-6.35315566 5.71112466 -3.16168477 2.87693676 0 0 Z " fill="#D4E8F2" transform="translate(194,340)"/>
<path d="M0 0 C0.99 0.66 1.98 1.32 3 2 C3.1875 4.625 3.1875 4.625 3 7 C2.01 7.495 2.01 7.495 1 8 C1.66386719 8.29132813 2.32773438 8.58265625 3.01171875 8.8828125 C9.42705563 11.86102729 13.75494969 14.50989938 17 21 C17.04022391 23.3329866 17.04320247 25.66706666 17 28 C15.68 28 14.36 28 13 28 C12.75765625 27.38511719 12.5153125 26.77023437 12.265625 26.13671875 C11.93046875 25.32847656 11.5953125 24.52023437 11.25 23.6875 C10.92515625 22.88699219 10.6003125 22.08648437 10.265625 21.26171875 C8.77210251 18.59273875 7.6914324 17.45921034 5 16 C1.8290823 15.52568351 1.8290823 15.52568351 -1.5625 15.625 C-2.69816406 15.61726563 -3.83382812 15.60953125 -5.00390625 15.6015625 C-7.93509155 15.77272301 -7.93509155 15.77272301 -9.8125 17.1796875 C-11.84981902 20.3026831 -12.28844037 23.80251341 -13.05859375 27.40625 C-14.17087427 30.47079053 -15.19828653 31.40276148 -18 33 C-21 33.5625 -21 33.5625 -24 33 C-27.02582542 29.81492062 -27.91163772 27.58908183 -28.5625 23.25 C-28.17068616 16.43243913 -24.64561985 10.14534931 -19.6875 5.5625 C-13.58461771 0.89947522 -7.60142639 -0.64418868 0 0 Z " fill="#4A565A" transform="translate(235,275)"/>
<path d="M0 0 C0.33 0 0.66 0 1 0 C1.21133202 7.04440079 1.07965362 13.24112575 -1 20 C1.91038542 19.97474816 1.91038542 19.97474816 5 19 C6.93469849 16.04928156 6.93469849 16.04928156 8 13 C8.33 13 8.66 13 9 13 C9.34526827 16.10741447 9.29301811 17.57268193 7.5 20.1875 C4.12561872 22.63392643 1.05387469 23.06960253 -3 24 C-3.33 24.66 -3.66 25.32 -4 26 C10.85 26.33 25.7 26.66 41 27 C41 27.33 41 27.66 41 28 C40.42894531 27.99476318 39.85789062 27.98952637 39.26953125 27.98413086 C33.29868559 27.93726114 27.32976014 27.94657825 21.35888672 27.98779297 C19.13395792 27.99587891 16.90892979 27.98987816 14.68408203 27.96923828 C11.47558596 27.94196248 8.27086469 27.96618291 5.0625 28 C4.07572266 27.9805835 3.08894531 27.96116699 2.07226562 27.94116211 C-3.5947339 28.05817264 -6.4656279 28.867563 -10.5234375 32.94970703 C-11.44068604 34.01851608 -11.44068604 34.01851608 -12.37646484 35.10891724 C-17.51696048 41.09653177 -26.70398842 43.41455654 -34.296875 44.25390625 C-41.61115892 44.61496167 -50.36368473 43.14172067 -56.0390625 38.23828125 C-57.95854642 36.71060426 -57.95854642 36.71060426 -60.34765625 37.47265625 C-63.7313002 39.42111691 -66.54596576 41.84265877 -69.4375 44.4375 C-74.20812745 48.62688294 -79.04014725 52.67816176 -84.0625 56.5625 C-89.47360966 60.75280587 -94.73223162 65.09023459 -99.91430664 69.56079102 C-104.97054544 73.90468013 -104.97054544 73.90468013 -109.375 74.3125 C-113 74 -113 74 -115.5 72.3125 C-117 70 -117 70 -116.875 67.3125 C-116 65 -116 65 -114 64 C-113.484375 64.680625 -112.96875 65.36125 -112.4375 66.0625 C-110.09162468 68.35133005 -110.09162468 68.35133005 -106.7265625 67.92578125 C-102.46437644 66.86693629 -100.06166671 65.04274146 -96.9375 62.125 C-95.80287728 61.11482831 -94.66608575 60.10708834 -93.52734375 59.1015625 C-92.94710449 58.5849707 -92.36686523 58.06837891 -91.76904297 57.53613281 C-88.93526355 55.07544552 -85.97095099 52.79149769 -83 50.5 C-76.16506219 45.19439753 -69.56321468 39.63651493 -63 34 C-63.51691406 33.22914063 -64.03382813 32.45828125 -64.56640625 31.6640625 C-65.22511719 30.66117187 -65.88382813 29.65828125 -66.5625 28.625 C-67.22378906 27.62726563 -67.88507813 26.62953125 -68.56640625 25.6015625 C-69.03949219 24.74304688 -69.51257813 23.88453125 -70 23 C-69.67 22.34 -69.34 21.68 -69 21 C-68.59910156 21.58007812 -68.19820312 22.16015625 -67.78515625 22.7578125 C-61.92109111 30.81591562 -55.83238716 35.74823051 -46 38 C-34.88352839 39.16940182 -24.6633718 38.8080018 -15.390625 32.1171875 C-5.48375403 23.93962241 -1.61107513 15.31285238 -0.2265625 2.67578125 C-0.15179688 1.79277344 -0.07703125 0.90976562 0 0 Z " fill="#1B52E4" transform="translate(268,293)"/>
<path d="M0 0 C0.33 0 0.66 0 1 0 C1.03963867 0.69859131 1.07927734 1.39718262 1.12011719 2.11694336 C1.95216495 16.11120528 3.12571536 29.49642539 7 43 C3.09479424 44.67398321 -0.82576002 46.30869597 -4.75 47.9375 C-6.38775391 48.64036133 -6.38775391 48.64036133 -8.05859375 49.35742188 C-15.48534619 52.41161889 -21.98081699 53.8650037 -30 54 C-30.95938477 54.02070557 -31.91876953 54.04141113 -32.90722656 54.06274414 C-35.68945178 54.09672588 -38.46773957 54.08837224 -41.25 54.0625 C-42.67119141 54.05573242 -42.67119141 54.05573242 -44.12109375 54.04882812 C-46.41413442 54.03724711 -48.70702914 54.02094479 -51 54 C-51 53.67 -51 53.34 -51 53 C-50.41734375 52.97421875 -49.8346875 52.9484375 -49.234375 52.921875 C-42.0150673 52.42242604 -35.75619355 50.51910774 -29 48 C-28.07316406 47.66613281 -27.14632813 47.33226562 -26.19140625 46.98828125 C-17.60391471 43.75999691 -13.50667461 40.07847708 -9.55078125 31.7578125 C-5.18982347 21.61462998 -2.24038962 10.78949813 0 0 Z " fill="#A8D7E9" transform="translate(306,387)"/>
<path d="M0 0 C34.98 0 69.96 0 106 0 C105.67 2.64 105.34 5.28 105 8 C93.16841664 8.2751785 81.51068247 7.41006698 69.7265625 6.46875 C67.70636599 6.31133722 65.68613209 6.15440377 63.66586304 5.9979248 C58.39504495 5.58840086 53.12475431 5.17244508 47.85455322 4.75506592 C42.45803123 4.32885562 37.06102709 3.90884321 31.6640625 3.48828125 C21.10889892 2.66485836 10.55428308 1.83462769 0 1 C0 0.67 0 0.34 0 0 Z " fill="#A9D7E9" transform="translate(202,377)"/>
<path d="M0 0 C3.77057547 -0.11597653 7.54069393 -0.18717396 11.3125 -0.25 C12.38435547 -0.28351563 13.45621094 -0.31703125 14.56054688 -0.3515625 C15.58857422 -0.36445313 16.61660156 -0.37734375 17.67578125 -0.390625 C18.62364502 -0.41157227 19.57150879 -0.43251953 20.5480957 -0.45410156 C23 0 23 0 24.90625 1.7668457 C26 4 26 4 25.71362305 6.00561523 C25.27336792 7.0527771 25.27336792 7.0527771 24.82421875 8.12109375 C22.94242837 13.03348288 21.83939096 17.91206245 20.8125 23.0625 C20.63525391 23.92810547 20.45800781 24.79371094 20.27539062 25.68554688 C19.84532887 27.7893625 19.42194832 29.89454212 19 32 C16.03909591 28.4609602 13.62667327 24.85775154 11.328125 20.859375 C11.00084412 20.29172424 10.67356323 19.72407349 10.33636475 19.13922119 C9.65209856 17.95040543 8.96985024 16.7604261 8.28955078 15.56933594 C7.24352377 13.73866583 6.19063561 11.91207465 5.13671875 10.0859375 C0 1.14659643 0 1.14659643 0 0 Z " fill="#A7D7E9" transform="translate(289,344)"/>
<path d="M0 0 C2.5363497 5.43371269 4.65599065 10.93208652 4 17 C4.99 17.33 5.98 17.66 7 18 C6.01 18 5.02 18 4 18 C3.67 18.99 3.34 19.98 3 21 C-4.93262098 21.95010479 -9.58708015 20.83651813 -15.89453125 15.8828125 C-18.26729071 13.76097566 -20.30120008 11.70263624 -22 9 C-22 8.34 -22 7.68 -22 7 C-18.71338904 5.63332132 -15.41999764 4.28381896 -12.125 2.9375 C-11.18785156 2.54755859 -10.25070312 2.15761719 -9.28515625 1.75585938 C-8.38925781 1.39169922 -7.49335938 1.02753906 -6.5703125 0.65234375 C-5.74289551 0.31195068 -4.91547852 -0.02844238 -4.06298828 -0.37915039 C-2 -1 -2 -1 0 0 Z " fill="#D3E7F1" transform="translate(313,434)"/>
<path d="M0 0 C2.18017578 1.16772461 2.18017578 1.16772461 4 3 C4.57763672 5.60375977 4.57763672 5.60375977 4.6796875 8.69140625 C4.7209375 9.80064453 4.7621875 10.90988281 4.8046875 12.05273438 C4.82789063 13.21095703 4.85109375 14.36917969 4.875 15.5625 C4.92140625 16.72458984 4.9678125 17.88667969 5.015625 19.08398438 C5.20726966 25.41931451 5.20726966 25.41931451 5 28 C3 30 3 30 0.6875 30.625 C-2.53930452 29.87458035 -2.8543561 29.2532368 -4.625 26.5625 C-8.67594718 19.2912415 -11.55285822 11.43415151 -10 3 C-7.20129268 -0.7761663 -4.51934012 -0.47572001 0 0 Z " fill="#FEFEFE" transform="translate(220,384)"/>
<path d="M0 0 C14.13144613 -0.50072053 27.45945195 1.01874611 38.20703125 10.9296875 C43.75766111 17.33891153 46.1573484 24.6605349 46 33 C44.26622309 30.39933464 43.08708655 28.01943121 41.8125 25.1875 C38.07274323 17.71885784 32.99116076 13.79520267 25.23046875 10.859375 C20.08525571 9.49063634 14.80585986 8.8427724 9.51269531 8.30200195 C3.46416 7.55541263 3.46416 7.55541263 0.93359375 4.52734375 C0 2 0 2 0 0 Z " fill="#04141D" transform="translate(261,276)"/>
<path d="M0 0 C1.875 1.125 1.875 1.125 2.875 2.125 C3.63006875 7.28463645 2.04364651 9.99612413 -0.76953125 14.09375 C-2.06202283 16.030625 -3.04710624 17.97173142 -4.0625 20.0625 C-6.125 23.125 -6.125 23.125 -9.125 24.3125 C-12.125 24.125 -12.125 24.125 -14.5 22.5625 C-16.66762732 19.31105902 -16.78214018 17.99482549 -16.125 14.125 C-13.61366587 8.07642503 -10.48943688 3.85678218 -5.125 0.125 C-2.125 -0.875 -2.125 -0.875 0 0 Z " fill="#FDFEFE" transform="translate(228.125,348.875)"/>
<path d="M0 0 C11.385 3.96 11.385 3.96 23 8 C23 10.64 23 13.28 23 16 C24.32 16.33 25.64 16.66 27 17 C26.236875 17.061875 25.47375 17.12375 24.6875 17.1875 C21.76019884 17.7336025 21.76019884 17.7336025 20.5625 20.5625 C19 23 19 23 16.25 23.875 C10.93807925 22.44486749 8.82743834 18.52263626 6 14 C0 3.2 0 3.2 0 0 Z " fill="#D5E9F2" transform="translate(216,433)"/>
<path d="M0 0 C4.41832494 1.35004373 6.64842388 2.99361106 9 7 C9.82129197 13.26235127 8.69829568 17.85320517 5 23 C1.36917655 26.7870679 -2.28400429 29.71200521 -7 32 C-6.49257809 24.94910743 -5.28988597 18.33225044 -3.5 11.5 C-3.27441406 10.60796875 -3.04882812 9.7159375 -2.81640625 8.796875 C-1.15576475 2.3115295 -1.15576475 2.3115295 0 0 Z " fill="#D2E2FD" transform="translate(511,316)"/>
<path d="M0 0 C0.33 0 0.66 0 1 0 C1.90313203 12.29263044 -0.99722543 25.31664277 -9 35 C-11.1875 36.265625 -11.1875 36.265625 -13 37 C-15 35 -15 35 -15.375 31.5625 C-15.02972267 20.91644898 -9.0425461 12.35037685 -3 4 C-2.44441406 3.22527344 -1.88882812 2.45054687 -1.31640625 1.65234375 C-0.88199219 1.10707031 -0.44757813 0.56179688 0 0 Z " fill="#D0E2FD" transform="translate(470,315)"/>
<path d="M0 0 C4.08949139 2.55593212 6.81576462 5.50652923 9 9.875 C9.04022391 12.2079866 9.04320247 14.54206666 9 16.875 C7.68 16.875 6.36 16.875 5 16.875 C4.75765625 16.26011719 4.5153125 15.64523437 4.265625 15.01171875 C3.93046875 14.20347656 3.5953125 13.39523437 3.25 12.5625 C2.76273438 11.36173828 2.76273438 11.36173828 2.265625 10.13671875 C0.77562402 7.47403181 -0.32125223 6.3395057 -3 4.875 C-8.74475572 4.05113968 -14.19404797 4.11459915 -19.5625 6.375 C-22.643034 9.53452205 -24.32853948 12.82416627 -26 16.875 C-27.32 16.545 -28.64 16.215 -30 15.875 C-29.4039512 9.61648765 -27.08419669 5.75586043 -22.4375 1.5625 C-16.46009255 -2.57570515 -6.73641038 -2.53360568 0 0 Z " fill="#37E2A9" transform="translate(243,286.125)"/>
<path d="M0 0 C0.99 0.33 1.98 0.66 3 1 C3 1.66 3 2.32 3 3 C1.45111498 4.41706502 -0.16761534 5.75809496 -1.8125 7.0625 C-2.81925781 7.86816406 -3.82601562 8.67382812 -4.86328125 9.50390625 C-5.38615723 9.91914551 -5.9090332 10.33438477 -6.44775391 10.76220703 C-8.81738954 12.65180324 -11.15763792 14.57676187 -13.5 16.5 C-14.41007812 17.24378906 -15.32015625 17.98757813 -16.2578125 18.75390625 C-18.06836727 20.23691051 -19.87573186 21.72381919 -21.6796875 23.21484375 C-23.48086078 24.70015911 -25.28821228 26.17801311 -27.1015625 27.6484375 C-28.61967335 28.88011234 -30.13621396 30.1139318 -31.63574219 31.36816406 C-33.32791895 32.78236119 -35.03713031 34.17347977 -36.75 35.5625 C-37.26868652 36.00456787 -37.78737305 36.44663574 -38.32177734 36.90209961 C-41.23342536 39.22522303 -42.99234957 39.99921575 -46.734375 40.3828125 C-50 40 -50 40 -52.5 38.3125 C-54 36 -54 36 -53.875 33.3125 C-53 31 -53 31 -51 30 C-50.484375 30.680625 -49.96875 31.36125 -49.4375 32.0625 C-47.09162468 34.35133005 -47.09162468 34.35133005 -43.7265625 33.92578125 C-39.46437644 32.86693629 -37.06166671 31.04274146 -33.9375 28.125 C-32.80287728 27.11482831 -31.66608575 26.10708834 -30.52734375 25.1015625 C-29.94710449 24.5849707 -29.36686523 24.06837891 -28.76904297 23.53613281 C-25.93532299 21.07549714 -22.9715725 18.7906044 -20 16.5 C-16.36475777 13.69340161 -12.79064351 10.85130378 -9.33203125 7.828125 C-8.44547852 7.0556543 -8.44547852 7.0556543 -7.54101562 6.26757812 C-6.4107127 5.27521047 -5.28792802 4.27419634 -4.17382812 3.26367188 C-2.64453125 1.921875 -2.64453125 1.921875 0 0 Z " fill="#0D48F2" transform="translate(205,327)"/>
<path d="M0 0 C0.66 0.33 1.32 0.66 2 1 C1.67 1.99 1.34 2.98 1 4 C7.74080405 7.83300623 14.42444808 9.47565114 22 11 C20.35 13.97 18.7 16.94 17 20 C11.60144375 19.44912691 7.54713997 17.52800376 2.8125 15.0625 C2.10158203 14.70220703 1.39066406 14.34191406 0.65820312 13.97070312 C-2.35708955 12.43043603 -5.17588068 10.88274622 -8 9 C-6.4169423 4.7257442 -3.49431596 2.73468206 0 0 Z " fill="#AAD7E9" transform="translate(178,353)"/>
<path d="M0 0 C0.88993652 0.3252063 0.88993652 0.3252063 1.79785156 0.65698242 C0.30878319 4.31862595 -1.6775998 6.10947403 -4.76464844 8.53198242 C-5.73789063 9.30670898 -6.71113281 10.08143555 -7.71386719 10.87963867 C-8.53443604 11.52956787 -8.53443604 11.52956787 -9.37158203 12.19262695 C-12.97513253 15.07527511 -16.52059689 18.02921619 -20.07714844 20.96948242 C-22.1777813 22.70347889 -24.27908071 24.4363344 -26.38867188 26.15942383 C-27.93569353 27.43694548 -29.4513724 28.75226519 -30.95996094 30.07495117 C-33.20214844 31.65698242 -33.20214844 31.65698242 -37.20214844 31.65698242 C-37.20214844 30.66698242 -37.20214844 29.67698242 -37.20214844 28.65698242 C-35.39355469 26.88745117 -35.39355469 26.88745117 -32.76464844 24.84448242 C-31.77078125 24.0581543 -30.77691406 23.27182617 -29.75292969 22.46166992 C-29.19299316 22.02177734 -28.63305664 21.58188477 -28.05615234 21.12866211 C-24.4816098 18.29124541 -20.97200654 15.37421969 -17.45214844 12.46948242 C-16.74388916 11.8877124 -16.03562988 11.30594238 -15.3059082 10.70654297 C-14.27228149 9.85636597 -14.27228149 9.85636597 -13.21777344 8.98901367 C-12.54552734 8.43938965 -11.87328125 7.88976562 -11.18066406 7.32348633 C-9.84921716 6.20200847 -8.54559717 5.04673494 -7.27050781 3.86157227 C-6.66529297 3.3029248 -6.06007812 2.74427734 -5.43652344 2.16870117 C-4.90768555 1.66169678 -4.37884766 1.15469238 -3.83398438 0.63232422 C-2.20214844 -0.34301758 -2.20214844 -0.34301758 0 0 Z " fill="#6585F6" transform="translate(198.2021484375,323.343017578125)"/>
<path d="M0 0 C4.17372305 2.95126344 6.79371569 5.86264771 9.3125 10.3125 C8.9825 11.3025 8.6525 12.2925 8.3125 13.3125 C7.99539063 12.79300781 7.67828125 12.27351563 7.3515625 11.73828125 C2.71959391 4.81591935 -2.90529131 1.90656956 -10.6875 -0.6875 C-20.4022665 -1.4460103 -29.14148098 -0.36537377 -37.0546875 5.65234375 C-40.3633164 9.01638031 -42.43864254 13.20467987 -44.6875 17.3125 C-45.3475 18.3025 -46.0075 19.2925 -46.6875 20.3125 C-46.32358197 13.3980574 -42.63625962 7.27984424 -37.828125 2.44140625 C-26.7770477 -6.42155775 -12.04456023 -7.45331697 0 0 Z " fill="#0741E6" transform="translate(248.6875,271.6875)"/>
<path d="M0 0 C3.47614371 1.73807186 3.94440065 5.67379518 5.1796875 9.1875 C6.0683335 12.23428628 6.34166418 14.83960636 6 18 C6.99 18.33 7.98 18.66 9 19 C8.01 19 7.02 19 6 19 C5.67 19.99 5.34 20.98 5 22 C1.37 22 -2.26 22 -6 22 C-4.68 21.01 -3.36 20.02 -2 19 C-1.65805193 16.71502821 -1.65805193 16.71502821 -2.125 14.25 C-2.25003906 13.37085938 -2.37507813 12.49171875 -2.50390625 11.5859375 C-3.13481597 8.29725846 -3.96195922 5.18332506 -5 2 C-2.625 0.9375 -2.625 0.9375 0 0 Z " fill="#A8D6E8" transform="translate(311,433)"/>
<path d="M0 0 C2.97 0.495 2.97 0.495 6 1 C6 3.64 6 6.28 6 9 C7.32 9.33 8.64 9.66 10 10 C9.236875 10.061875 8.47375 10.12375 7.6875 10.1875 C4.76019884 10.7336025 4.76019884 10.7336025 3.5625 13.5625 C3.046875 14.366875 2.53125 15.17125 2 16 C-1.0625 16.5 -1.0625 16.5 -4 16 C-4.66 15.01 -5.32 14.02 -6 13 C-5.38125 12.525625 -4.7625 12.05125 -4.125 11.5625 C-1.1889379 8.02195453 -0.72455289 4.46172044 0 0 Z " fill="#A6D5E8" transform="translate(233,440)"/>
<path d="M0 0 C-0.639375 0.433125 -1.27875 0.86625 -1.9375 1.3125 C-4.26746003 2.91239177 -4.26746003 2.91239177 -5 6 C-5.78375 6.763125 -6.5675 7.52625 -7.375 8.3125 C-10.05674473 11.05809579 -11.45923438 13.51300413 -13 17 C-14.32 16.67 -15.64 16.34 -17 16 C-16.4039512 9.74148765 -14.08419669 5.88086043 -9.4375 1.6875 C-5.92549269 -0.74388968 -4.00995037 -1.24446736 0 0 Z " fill="#70E9C1" transform="translate(230,286)"/>
<path d="M0 0 C3.96 0 7.92 0 12 0 C12 2.31 12 4.62 12 7 C8.04 7 4.08 7 0 7 C0 4.69 0 2.38 0 0 Z " fill="#A9D7E9" transform="translate(264,254)"/>
<path d="M0 0 C3.30176013 6.13184023 4.90204561 12.03567728 4 19 C3.34 19.99 2.68 20.98 2 22 C1.01 22 0.02 22 -1 22 C-1.02903577 18.89585298 -1.0468107 15.79174091 -1.0625 12.6875 C-1.07087891 11.80642578 -1.07925781 10.92535156 -1.08789062 10.01757812 C-1.09111328 9.17001953 -1.09433594 8.32246094 -1.09765625 7.44921875 C-1.10289307 6.66893311 -1.10812988 5.88864746 -1.11352539 5.0847168 C-1 3 -1 3 0 0 Z " fill="#A8D7EA" transform="translate(354,375)"/>
<path d="M0 0 C0.99 0.33 1.98 0.66 3 1 C2.52431821 5.99465883 1.1835207 9.10903025 -2 13 C-4.75 14.375 -4.75 14.375 -7 15 C-6.29445766 9.07344433 -4.64297927 3.97969651 0 0 Z " fill="#CAE0FD" transform="translate(458,388)"/>
<path d="M0 0 C1.32963842 3.98891525 0.38405007 7.18462836 -0.4375 11.1875 C-0.65889648 12.31188477 -0.65889648 12.31188477 -0.88476562 13.45898438 C-1.24972791 15.30734174 -1.62397411 17.15386161 -2 19 C-3.98 19 -5.96 19 -8 19 C-6.00386732 12.2813095 -3.2708579 6.19265192 0 0 Z " fill="#C1DDFD" transform="translate(498,400)"/>
<path d="M0 0 C0.33 0 0.66 0 1 0 C1.21133202 7.04440079 1.07965362 13.24112575 -1 20 C1.91038542 19.97474816 1.91038542 19.97474816 5 19 C6.93469849 16.04928156 6.93469849 16.04928156 8 13 C8.33 13 8.66 13 9 13 C9.3475632 16.12806884 9.26933948 17.59599079 7.5 20.25 C3.94433786 22.7389635 1.32527361 22.79071257 -3 23 C-3.66 22.67 -4.32 22.34 -5 22 C-3.19484241 15.42406877 -3.19484241 15.42406877 -1.9375 12.6875 C-0.49968267 8.56575698 -0.31980968 4.33426278 0 0 Z " fill="#197AC4" transform="translate(268,293)"/>
<path d="M0 0 C-3.70090521 3.9252025 -7.54959656 6.94580156 -12 10 C-12.31424507 6.54330418 -12.37956836 4.60098323 -10.5 1.625 C-6.86748926 -0.73613198 -4.28156703 -0.2854378 0 0 Z " fill="#A6D3EA" transform="translate(170,340)"/>
<path d="M0 0 C3.125 -0.1875 3.125 -0.1875 6 0 C6.33 0.66 6.66 1.32 7 2 C5.875 4.5625 5.875 4.5625 4 7 C1.3125 7.8125 1.3125 7.8125 -1 8 C-1.625 5.6875 -1.625 5.6875 -2 3 C-1.34 2.01 -0.68 1.02 0 0 Z " fill="#DEEDF4" transform="translate(260,228)"/>
<path d="M0 0 C2.5 1.75 2.5 1.75 4 4 C4 5.32 4 6.64 4 8 C3.34 8 2.68 8 2 8 C1.67 6.35 1.34 4.7 1 3 C-1.97 3 -4.94 3 -8 3 C-8.66 4.32 -9.32 5.64 -10 7 C-10.99 7 -11.98 7 -13 7 C-10.71348227 0.31633278 -6.87126427 -1.13368948 0 0 Z " fill="#33D5A3" transform="translate(290,292)"/>
<path d="M0 0 C3.16115776 1.36983503 3.9927092 1.9890638 6 5 C5 6 5 6 2.4375 6.0625 C1.2309375 6.0315625 1.2309375 6.0315625 0 6 C-0.38218767 4.34385343 -0.71395102 2.67542976 -1 1 C-0.67 0.67 -0.34 0.34 0 0 Z " fill="#CCDAFD" transform="translate(379,379)"/>
<path d="M0 0 C2.0625 0.4375 2.0625 0.4375 4 1 C3.67 2.65 3.34 4.3 3 6 C2.01 6 1.02 6 0 6 C-0.38218767 4.34385343 -0.71395102 2.67542976 -1 1 C-0.67 0.67 -0.34 0.34 0 0 Z " fill="#C9D8FD" transform="translate(381,361)"/>
<path d="M0 0 C0.66 0 1.32 0 2 0 C1.25 4.75 1.25 4.75 -1 7 C-3.625 6.625 -3.625 6.625 -6 6 C-5.38125 5.7525 -4.7625 5.505 -4.125 5.25 C-1.64931313 3.79371361 -1.04874998 2.62187494 0 0 Z " fill="#B5DCEB" transform="translate(266,230)"/>
</svg>
